<svg xmlns="http://www.w3.org/2000/svg" viewBox="0 0 400 300" role="img" aria-hidden="true">
  <rect width="400" height="300" fill="#f6f4ee" />
  <rect x="24" y="24" width="352" height="252" rx="14" fill="#ffffff" stroke="#e3ded0" stroke-width="2" />

  <!-- fotolijst-stapel -->
  <rect x="150" y="60" width="140" height="104" rx="8" fill="#f3e3d3" transform="rotate(-6 220 112)" />
  <rect x="130" y="72" width="140" height="104" rx="8" fill="#dfe7fb" transform="rotate(4 200 124)" />
  <rect x="140" y="76" width="120" height="86" rx="8" fill="#ffffff" stroke="#e3ded0" stroke-width="2" />
  <circle cx="200" cy="119" r="26" fill="none" stroke="#ea580c" stroke-width="6" />
  <circle cx="200" cy="119" r="10" fill="#ea580c" />

  <!-- kleurstalen -->
  <rect x="48" y="204" width="36" height="36" rx="8" fill="#2f6fed" />
  <rect x="92" y="204" width="36" height="36" rx="8" fill="#ea580c" />
  <rect x="136" y="204" width="36" height="36" rx="8" fill="#f2b705" />
  <rect x="180" y="204" width="36" height="36" rx="8" fill="#2a635a" />

  <rect x="240" y="212" width="112" height="10" rx="3" fill="#6b6a62" opacity="0.5" />
  <rect x="240" y="228" width="80" height="10" rx="3" fill="#6b6a62" opacity="0.35" />
</svg>
