<svg xmlns="http://www.w3.org/2000/svg" viewBox="0 0 400 300" role="img" aria-hidden="true">
  <rect width="400" height="300" fill="#f6f4ee" />
  <rect x="24" y="24" width="352" height="252" rx="14" fill="#ffffff" stroke="#e3ded0" stroke-width="2" />
  <rect x="24" y="24" width="352" height="34" rx="14" fill="#18181b" />
  <rect x="24" y="44" width="352" height="14" fill="#18181b" />
  <circle cx="44" cy="41" r="5" fill="#ea580c" />
  <circle cx="60" cy="41" r="5" fill="#f2b705" />
  <circle cx="76" cy="41" r="5" fill="#2a635a" />
  <rect x="48" y="80" width="140" height="16" rx="4" fill="#2f6fed" />
  <rect x="48" y="106" width="220" height="10" rx="3" fill="#6b6a62" opacity="0.6" />
  <rect x="48" y="124" width="180" height="10" rx="3" fill="#6b6a62" opacity="0.4" />
  <rect x="48" y="150" width="110" height="34" rx="8" fill="#2f6fed" />
  <rect x="240" y="90" width="112" height="96" rx="10" fill="#dfe7fb" />
  <rect x="48" y="210" width="304" height="1" fill="#e3ded0" />
  <rect x="48" y="228" width="80" height="10" rx="3" fill="#6b6a62" opacity="0.5" />
  <rect x="140" y="228" width="80" height="10" rx="3" fill="#6b6a62" opacity="0.5" />
  <rect x="232" y="228" width="80" height="10" rx="3" fill="#6b6a62" opacity="0.5" />
</svg>
